<svg width="21" height="21" viewBox="0 0 21 21" fill="none" xmlns="http://www.w3.org/2000/svg">
<path d="M9.07929 6.35406C8.92096 6.35406 8.7626 6.29576 8.6376 6.17076L5.97926 3.51242L3.32093 6.17076C3.07926 6.41242 2.67926 6.41242 2.4376 6.17076C2.19593 5.92909 2.19593 5.52909 2.4376 5.28742L5.53762 2.1874C5.65429 2.07073 5.8126 2.00409 5.97926 2.00409C6.14593 2.00409 6.30429 2.07073 6.42096 2.1874L9.52093 5.28742C9.7626 5.52909 9.7626 5.92909 9.52093 6.17076C9.39593 6.29576 9.23762 6.35406 9.07929 6.35406Z" fill="#5E5E5E"/>
<path d="M5.97925 18.2541C5.63758 18.2541 5.35425 17.9708 5.35425 17.6291V2.62909C5.35425 2.28742 5.63758 2.00409 5.97925 2.00409C6.32091 2.00409 6.60425 2.28742 6.60425 2.62909V17.6291C6.60425 17.9708 6.32091 18.2541 5.97925 18.2541Z" fill="#5E5E5E"/>
<path d="M14.7708 18.254C14.6041 18.254 14.4457 18.1874 14.3291 18.0707L11.2291 14.9707C10.9874 14.729 10.9874 14.329 11.2291 14.0874C11.4708 13.8457 11.8708 13.8457 12.1124 14.0874L14.7708 16.7457L17.4291 14.0874C17.6707 13.8457 18.0708 13.8457 18.3124 14.0874C18.5541 14.329 18.5541 14.729 18.3124 14.9707L15.2124 18.0707C15.0957 18.1874 14.9291 18.254 14.7708 18.254Z" fill="#5E5E5E"/>
<path d="M14.7625 18.2541C14.4208 18.2541 14.1375 17.9708 14.1375 17.6291V2.62909C14.1375 2.28742 14.4208 2.00409 14.7625 2.00409C15.1041 2.00409 15.3875 2.28742 15.3875 2.62909V17.6291C15.3875 17.9708 15.1125 18.2541 14.7625 18.2541Z" fill="#5E5E5E"/>
</svg>
