<svg width="20" height="20" viewBox="0 0 20 20" fill="none" xmlns="http://www.w3.org/2000/svg">
<path d="M14.3667 18.9584H5.63334C3.3 18.9584 1.81667 17.5667 1.68334 15.2417L1.25 8.36669C1.18334 7.32502 1.54167 6.32502 2.25834 5.56669C2.96667 4.80835 3.96667 4.37502 5 4.37502C5.26667 4.37502 5.525 4.21669 5.65 3.96669L6.25 2.77502C6.74167 1.80002 7.975 1.04169 9.05 1.04169H10.9583C12.0333 1.04169 13.2583 1.80002 13.75 2.76669L14.35 3.98335C14.475 4.21669 14.725 4.37502 15 4.37502C16.0333 4.37502 17.0333 4.80835 17.7417 5.56669C18.4583 6.33335 18.8167 7.32502 18.75 8.36669L18.3167 15.25C18.1667 17.6084 16.725 18.9584 14.3667 18.9584ZM9.05 2.29169C8.43334 2.29169 7.65 2.77502 7.36667 3.33335L6.76667 4.53335C6.41667 5.20835 5.74167 5.62502 5 5.62502C4.3 5.62502 3.65 5.90835 3.16667 6.41669C2.69167 6.92502 2.45 7.59169 2.5 8.28335L2.93334 15.1667C3.03334 16.85 3.94167 17.7084 5.63334 17.7084H14.3667C16.05 17.7084 16.9583 16.85 17.0667 15.1667L17.5 8.28335C17.5417 7.59169 17.3083 6.92502 16.8333 6.41669C16.35 5.90835 15.7 5.62502 15 5.62502C14.2583 5.62502 13.5833 5.20835 13.2333 4.55002L12.625 3.33335C12.35 2.78335 11.5667 2.30002 10.95 2.30002H9.05V2.29169Z" fill="#7282FF"/>
<path d="M11.25 7.29169H8.75C8.40833 7.29169 8.125 7.00835 8.125 6.66669C8.125 6.32502 8.40833 6.04169 8.75 6.04169H11.25C11.5917 6.04169 11.875 6.32502 11.875 6.66669C11.875 7.00835 11.5917 7.29169 11.25 7.29169Z" fill="#7282FF"/>
<path d="M9.99999 15.625C8.15832 15.625 6.66666 14.1333 6.66666 12.2916C6.66666 10.45 8.15832 8.95831 9.99999 8.95831C11.8417 8.95831 13.3333 10.45 13.3333 12.2916C13.3333 14.1333 11.8417 15.625 9.99999 15.625ZM9.99999 10.2083C8.84999 10.2083 7.91666 11.1416 7.91666 12.2916C7.91666 13.4416 8.84999 14.375 9.99999 14.375C11.15 14.375 12.0833 13.4416 12.0833 12.2916C12.0833 11.1416 11.15 10.2083 9.99999 10.2083Z" fill="#7282FF"/>
</svg>
