<svg width="20" height="20" viewBox="0 0 20 20" fill="none" xmlns="http://www.w3.org/2000/svg">
<path d="M9.99999 7.1218C8.02175 7.1218 6.41229 8.73121 6.41229 10.7095C6.41229 12.6878 8.02171 14.2972 9.99999 14.2972C11.9783 14.2972 13.5877 12.6878 13.5877 10.7095C13.5877 8.73121 11.9783 7.1218 9.99999 7.1218ZM9.99999 13.5959C8.40839 13.5959 7.11354 12.3011 7.11354 10.7095C7.11354 9.11793 8.40839 7.82305 9.99999 7.82305C11.5916 7.82305 12.8864 9.11789 12.8864 10.7095C12.8864 12.3011 11.5916 13.5959 9.99999 13.5959Z" fill="#3F488C"/>
<path d="M17.4658 4.05161H15.5676C15.0611 4.05161 14.649 4.4636 14.649 4.97012V5.8745C14.649 6.38094 15.061 6.79301 15.5676 6.79301H17.4658C17.9723 6.79301 18.3843 6.38102 18.3843 5.8745V4.97012C18.3843 4.46368 17.9723 4.05161 17.4658 4.05161ZM17.6831 5.8745C17.6831 5.9943 17.5856 6.09176 17.4658 6.09176H15.5676C15.4478 6.09176 15.3503 5.99434 15.3503 5.8745V4.97012C15.3503 4.85032 15.4478 4.75286 15.5676 4.75286H17.4658C17.5856 4.75286 17.6831 4.85032 17.6831 4.97012V5.8745H17.6831Z" fill="#3F488C"/>
<path d="M2.80282 10.5643C2.00372 10.5643 1.35364 11.2144 1.35364 12.0135C1.35364 12.8126 2.00375 13.4627 2.80282 13.4627C3.60188 13.4627 4.252 12.8126 4.252 12.0135C4.252 11.2144 3.60192 10.5643 2.80282 10.5643ZM2.80278 12.7614C2.39036 12.7614 2.05489 12.4259 2.05489 12.0135C2.05489 11.6011 2.3904 11.2656 2.80278 11.2656C3.21516 11.2656 3.55067 11.6011 3.55067 12.0135C3.55067 12.4259 3.2152 12.7614 2.80278 12.7614Z" fill="#3F488C"/>
<path d="M19.6494 6.8623C19.4557 6.8623 19.2987 7.01929 19.2987 7.21292V13.8979H17.3826C17.1889 13.8979 17.032 14.0549 17.032 14.2485C17.032 14.4422 17.1889 14.5992 17.3826 14.5992H19.2987V15.4319C19.2987 16.2161 18.6608 16.8541 17.8766 16.8541H2.12344C1.33926 16.8541 0.70125 16.2161 0.70125 15.4319V14.5992H6.29777C7.26215 15.5175 8.56637 16.082 10 16.082C11.4336 16.082 12.7379 15.5175 13.7022 14.5992H16.1906C16.3843 14.5992 16.5412 14.4422 16.5412 14.2486C16.5412 14.055 16.3843 13.898 16.1906 13.898H14.3212C14.9815 13.0055 15.3725 11.9024 15.3725 10.7095C15.3725 7.7471 12.9624 5.33702 10 5.33702C8.88711 5.33702 7.81934 5.67437 6.91207 6.31261C6.75367 6.42402 6.71563 6.64277 6.82703 6.80116C6.93848 6.95956 7.15723 6.99761 7.31559 6.8862C8.10406 6.33152 9.03234 6.03831 10.0001 6.03831C12.5758 6.03831 14.6713 8.13378 14.6713 10.7095C14.6713 13.2853 12.5758 15.3807 10.0001 15.3807C7.42434 15.3807 5.32887 13.2853 5.32887 10.7095C5.32887 9.62273 5.71027 8.56441 6.40277 7.72944C6.52637 7.58042 6.50578 7.35933 6.35672 7.23573C6.2077 7.11214 5.98664 7.13269 5.86301 7.28179C5.06633 8.24226 4.62762 9.4596 4.62762 10.7096C4.62762 11.9024 5.01859 13.0055 5.67883 13.898H0.70125V6.01808C0.70125 5.2339 1.33926 4.59589 2.12344 4.59589C2.12344 4.59589 4.67984 4.59159 4.70801 4.58429C5.55301 4.52874 6.37363 4.27027 7.09992 3.82796C7.81496 3.39253 8.63543 3.16234 9.47262 3.16234H17.8765C18.6607 3.16234 19.2987 3.80034 19.2987 4.58452V6.04417C19.2987 6.2378 19.4557 6.3948 19.6493 6.3948C19.843 6.3948 20 6.2378 20 6.04417V4.58452C20 3.41366 19.0474 2.46109 17.8765 2.46109H9.47266C8.5068 2.46109 7.5602 2.72663 6.7352 3.22902C6.19453 3.55827 5.59352 3.76991 4.97062 3.8537V2.79527C4.97062 2.60163 4.81363 2.44464 4.62 2.44464H2.18754C1.99391 2.44464 1.83691 2.60163 1.83691 2.79527V3.91456C0.801172 4.05491 0 4.94445 0 6.01808V15.4319C0 16.6027 0.952578 17.5553 2.12344 17.5553H17.8766C19.0474 17.5553 20 16.6028 20 15.4319V7.21292C20 7.01929 19.843 6.8623 19.6494 6.8623ZM2.53816 3.14589H4.26937V3.89468H2.53816V3.14589Z" fill="#3F488C"/>
</svg>
