<svg width="14" height="14" viewBox="0 0 14 14" fill="none" xmlns="http://www.w3.org/2000/svg">
<path d="M9.45711 8.04289C9.06658 7.65237 8.43342 7.65237 8.04289 8.04289C7.65237 8.43342 7.65237 9.06658 8.04289 9.45711L9.45711 8.04289ZM11.5429 12.9571C11.9334 13.3476 12.5666 13.3476 12.9571 12.9571C13.3476 12.5666 13.3476 11.9334 12.9571 11.5429L11.5429 12.9571ZM5.83333 8.91667C4.13046 8.91667 2.75 7.53621 2.75 5.83333H0.75C0.75 8.64078 3.02589 10.9167 5.83333 10.9167V8.91667ZM2.75 5.83333C2.75 4.13046 4.13046 2.75 5.83333 2.75V0.75C3.02589 0.75 0.75 3.02589 0.75 5.83333H2.75ZM5.83333 2.75C7.53621 2.75 8.91667 4.13046 8.91667 5.83333H10.9167C10.9167 3.02589 8.64078 0.75 5.83333 0.75V2.75ZM8.91667 5.83333C8.91667 7.53621 7.53621 8.91667 5.83333 8.91667V10.9167C8.64078 10.9167 10.9167 8.64078 10.9167 5.83333H8.91667ZM8.04289 9.45711L11.5429 12.9571L12.9571 11.5429L9.45711 8.04289L8.04289 9.45711Z" fill="#A3A3A3"/>
</svg>
