<svg width="21" height="21" viewBox="0 0 21 21" fill="none" xmlns="http://www.w3.org/2000/svg">
<path d="M16.4493 19.0109C16.1076 19.0153 15.8206 18.7357 15.8162 18.3941L15.6971 9.22816C15.6926 8.88652 15.9723 8.59953 16.3139 8.59509C16.6555 8.59065 16.9425 8.87028 16.947 9.21192L17.0661 18.3778C17.0705 18.7194 16.7909 19.0064 16.4493 19.0109Z" fill="#5E5E5E"/>
<path d="M16.2869 6.51197C15.9452 6.51641 15.6583 6.23678 15.6538 5.89514L15.5997 1.72883C15.5952 1.38719 15.8749 1.1002 16.2165 1.09576C16.5581 1.09132 16.8451 1.37095 16.8496 1.71259L16.9037 5.8789C16.9081 6.22054 16.6285 6.50753 16.2869 6.51197Z" fill="#5E5E5E"/>
<path d="M10.6162 19.0867C10.2746 19.0911 9.9876 18.8115 9.98316 18.4699L9.92902 14.3035C9.92458 13.9619 10.2042 13.6749 10.5458 13.6705C10.8875 13.666 11.1745 13.9457 11.1789 14.2873L11.2331 18.4536C11.2375 18.7952 10.9579 19.0822 10.6162 19.0867Z" fill="#5E5E5E"/>
<path d="M10.5188 11.5873C10.1772 11.5917 9.89021 11.3121 9.88577 10.9705L9.76667 1.80457C9.76223 1.46294 10.0419 1.17595 10.3835 1.17151C10.7251 1.16707 11.0121 1.44669 11.0166 1.78833L11.1357 10.9542C11.1401 11.2959 10.8605 11.5829 10.5188 11.5873Z" fill="#5E5E5E"/>
<path d="M4.78349 19.1625C4.44185 19.1669 4.15486 18.8873 4.15042 18.5457L4.03131 9.37977C4.02687 9.03813 4.3065 8.75114 4.64814 8.7467C4.98978 8.74226 5.27677 9.02189 5.28121 9.36353L5.40031 18.5294C5.40475 18.8711 5.12512 19.158 4.78349 19.1625Z" fill="#5E5E5E"/>
<path d="M4.62111 6.66352C4.27947 6.66796 3.99248 6.38833 3.98804 6.04669L3.9339 1.88038C3.92946 1.53874 4.20909 1.25175 4.55073 1.24731C4.89237 1.24287 5.17936 1.5225 5.1838 1.86414L5.23793 6.03045C5.24237 6.37209 4.96275 6.65908 4.62111 6.66352Z" fill="#5E5E5E"/>
<path d="M6.33093 9.97495L2.99788 10.0183C2.65624 10.0227 2.36925 9.74307 2.36481 9.40144C2.36037 9.0598 2.64 8.77281 2.98164 8.76837L6.31469 8.72506C6.65633 8.72062 6.94332 9.00025 6.94776 9.34188C6.9522 9.68352 6.67257 9.97051 6.33093 9.97495Z" fill="#5E5E5E"/>
<path d="M17.9967 9.82334L14.6636 9.86665C14.322 9.87109 14.035 9.59146 14.0306 9.24983C14.0261 8.90819 14.3058 8.6212 14.6474 8.61676L17.9805 8.57345C18.3221 8.56901 18.6091 8.84864 18.6135 9.19027C18.618 9.53191 18.3383 9.8189 17.9967 9.82334Z" fill="#5E5E5E"/>
<path d="M12.1854 11.5657L8.85237 11.609C8.51073 11.6134 8.22374 11.3338 8.2193 10.9921C8.21486 10.6505 8.49449 10.3635 8.83613 10.3591L12.1692 10.3158C12.5108 10.3113 12.7978 10.5909 12.8022 10.9326C12.8067 11.2742 12.5271 11.5612 12.1854 11.5657Z" fill="#5E5E5E"/>
</svg>
