<svg width="12" height="12" viewBox="0 0 12 12" fill="none" xmlns="http://www.w3.org/2000/svg">
<path d="M8.83006 11.335C8.56506 11.335 8.22506 11.25 7.80006 11L6.30506 10.115C6.15006 10.025 5.85006 10.025 5.70006 10.115L4.20006 11C3.31506 11.525 2.79506 11.315 2.56006 11.145C2.33006 10.975 1.97006 10.54 2.20506 9.53997L2.56006 8.00497C2.60006 7.84497 2.52006 7.56997 2.40006 7.44997L1.16006 6.20997C0.540059 5.58997 0.590059 5.05997 0.675059 4.79997C0.760059 4.53997 1.03006 4.07997 1.89006 3.93497L3.48506 3.66997C3.63506 3.64497 3.85006 3.48497 3.91506 3.34997L4.80006 1.58497C5.20006 0.779973 5.72506 0.659973 6.00006 0.659973C6.27506 0.659973 6.80006 0.779973 7.20006 1.58497L8.08006 3.34497C8.15006 3.47997 8.36506 3.63997 8.51506 3.66497L10.1101 3.92997C10.9751 4.07497 11.2451 4.53497 11.3251 4.79497C11.4051 5.05497 11.4551 5.58497 10.8401 6.20497L9.60006 7.44997C9.48006 7.56997 9.40506 7.83997 9.44006 8.00497L9.79506 9.53997C10.0251 10.54 9.67006 10.975 9.44006 11.145C9.31506 11.235 9.11506 11.335 8.83006 11.335ZM6.00006 9.29497C6.24506 9.29497 6.49006 9.35497 6.68506 9.46997L8.18006 10.355C8.61506 10.615 8.89006 10.615 8.99506 10.54C9.10006 10.465 9.17506 10.2 9.06506 9.70997L8.71006 8.17497C8.61506 7.75997 8.77006 7.22497 9.07006 6.91997L10.3101 5.67997C10.5551 5.43497 10.6651 5.19497 10.6151 5.02997C10.5601 4.86497 10.3301 4.72997 9.99006 4.67497L8.39506 4.40997C8.01006 4.34497 7.59006 4.03497 7.41506 3.68497L6.53506 1.92497C6.37506 1.60497 6.17506 1.41497 6.00006 1.41497C5.82506 1.41497 5.62506 1.60497 5.47006 1.92497L4.58506 3.68497C4.41006 4.03497 3.99006 4.34497 3.60506 4.40997L2.01506 4.67497C1.67506 4.72997 1.44506 4.86497 1.39006 5.02997C1.33506 5.19497 1.45006 5.43997 1.69506 5.67997L2.93506 6.91997C3.23506 7.21997 3.39006 7.75997 3.29506 8.17497L2.94006 9.70997C2.82506 10.205 2.90506 10.465 3.01006 10.54C3.11506 10.615 3.38506 10.61 3.82506 10.355L5.32006 9.46997C5.51006 9.35497 5.75506 9.29497 6.00006 9.29497Z" fill="#F4DD0D"/>
</svg>
