<svg width="20" height="20" viewBox="0 0 20 20" fill="none" xmlns="http://www.w3.org/2000/svg">
<path d="M4.78254 13.3333C4.87421 12.925 4.70754 12.3417 4.41587 12.05L2.39087 10.025C1.75754 9.39166 1.50754 8.71666 1.69087 8.13332C1.88254 7.54999 2.47421 7.14999 3.35754 6.99999L5.95754 6.56666C6.33254 6.49999 6.79087 6.16666 6.96587 5.82499L8.39921 2.94999C8.81587 2.12499 9.38254 1.66666 9.99921 1.66666C10.6159 1.66666 11.1825 2.12499 11.5992 2.94999L13.0325 5.82499C13.1409 6.04166 13.3659 6.24999 13.6075 6.39166L4.63254 15.3667C4.51587 15.4833 4.31587 15.375 4.34921 15.2083L4.78254 13.3333Z" fill="#FEDF45"/>
<path d="M15.5825 12.05C15.2825 12.35 15.1159 12.925 15.2159 13.3333L15.7909 15.8417C16.0325 16.8833 15.8825 17.6667 15.3659 18.0417C15.1575 18.1917 14.9075 18.2667 14.6159 18.2667C14.1909 18.2667 13.6909 18.1083 13.1409 17.7833L10.6992 16.3333C10.3159 16.1083 9.68253 16.1083 9.2992 16.3333L6.85753 17.7833C5.93253 18.325 5.14087 18.4167 4.63253 18.0417C4.44087 17.9 4.2992 17.7083 4.20753 17.4583L14.3409 7.32499C14.7242 6.94165 15.2659 6.76665 15.7909 6.85832L16.6325 6.99999C17.5159 7.14999 18.1075 7.54999 18.2992 8.13332C18.4825 8.71665 18.2325 9.39165 17.5992 10.025L15.5825 12.05Z" fill="#FEDF45"/>
</svg>
